<svg width="68" height="68" viewBox="0 0 68 68" fill="none" xmlns="http://www.w3.org/2000/svg">
<circle cx="34" cy="34" r="33.5" stroke="#4F4F4F"/>
<path d="M46.7344 27.8594C46.4531 26.7344 45.5625 25.8438 44.4844 25.5625C42.4688 25 34.5 25 34.5 25C34.5 25 26.4844 25 24.4688 25.5625C23.3906 25.8438 22.5 26.7344 22.2188 27.8594C21.6562 29.8281 21.6562 34.0469 21.6562 34.0469C21.6562 34.0469 21.6562 38.2188 22.2188 40.2344C22.5 41.3594 23.3906 42.2031 24.4688 42.4844C26.4844 43 34.5 43 34.5 43C34.5 43 42.4688 43 44.4844 42.4844C45.5625 42.2031 46.4531 41.3594 46.7344 40.2344C47.2969 38.2188 47.2969 34.0469 47.2969 34.0469C47.2969 34.0469 47.2969 29.8281 46.7344 27.8594ZM31.875 37.8438V30.25L38.5312 34.0469L31.875 37.8438Z" fill="#4F4F4F"/>
</svg>
