<svg width="68" height="68" viewBox="0 0 68 68" fill="none" xmlns="http://www.w3.org/2000/svg">
<circle cx="34" cy="34" r="33.5" stroke="#4F4F4F"/>
<path d="M43.5156 29.125C44.4531 28.4219 45.2969 27.5781 45.9531 26.5938C45.1094 26.9688 44.125 27.25 43.1406 27.3438C44.1719 26.7344 44.9219 25.7969 45.2969 24.625C44.3594 25.1875 43.2812 25.6094 42.2031 25.8438C41.2656 24.8594 40 24.2969 38.5938 24.2969C35.875 24.2969 33.6719 26.5 33.6719 29.2188C33.6719 29.5938 33.7188 29.9688 33.8125 30.3438C29.7344 30.1094 26.0781 28.1406 23.6406 25.1875C23.2188 25.8906 22.9844 26.7344 22.9844 27.6719C22.9844 29.3594 23.8281 30.8594 25.1875 31.75C24.3906 31.7031 23.5938 31.5156 22.9375 31.1406V31.1875C22.9375 33.5781 24.625 35.5469 26.875 36.0156C26.5 36.1094 26.0312 36.2031 25.6094 36.2031C25.2812 36.2031 25 36.1562 24.6719 36.1094C25.2812 38.0781 27.1094 39.4844 29.2656 39.5312C27.5781 40.8438 25.4688 41.6406 23.1719 41.6406C22.75 41.6406 22.375 41.5938 22 41.5469C24.1562 42.9531 26.7344 43.75 29.5469 43.75C38.5938 43.75 43.5156 36.2969 43.5156 29.7812C43.5156 29.5469 43.5156 29.3594 43.5156 29.125Z" fill="#4F4F4F"/>
</svg>
